<?xml version="1.0" encoding="UTF-8"?>
<!DOCTYPE svg PUBLIC "-//W3C//DTD SVG 1.1//EN" "http://www.w3.org/Graphics/SVG/1.1/DTD/svg11.dtd">
<svg version="1.1" xmlns="http://www.w3.org/2000/svg" xmlns:xlink="http://www.w3.org/1999/xlink" x="0" y="0" width="800" height="325" viewBox="0, 0, 800, 325">
  <g id="Layer_1">
    <path d="M347.83,48.243 C348.54,48.243 349.117,47.666 349.117,46.955 C349.117,46.245 348.54,45.666 347.83,45.666 C347.12,45.666 346.542,46.245 346.542,46.955 C346.542,47.666 347.12,48.243 347.83,48.243 M345.507,63.327 C346.208,63.327 346.78,62.755 346.78,62.053 C346.78,61.351 346.208,60.779 345.507,60.779 C344.804,60.779 344.232,61.351 344.232,62.053 C344.232,62.755 344.804,63.327 345.507,63.327 M323.43,28.366 C325.83,28.366 327.787,26.412 327.787,24.009 C327.787,21.606 325.83,19.65 323.43,19.65 C321.026,19.65 319.071,21.606 319.071,24.009 C319.071,26.412 321.026,28.366 323.43,28.366 M282.278,36.68 C282.278,36.51 282.14,36.371 281.967,36.371 C281.795,36.371 281.657,36.51 281.657,36.68 C281.657,37.024 282.278,37.024 282.278,36.68 M321.059,45.907 C322.452,45.907 323.586,44.771 323.586,43.376 C323.586,41.981 322.452,40.847 321.059,40.847 C319.663,40.847 318.528,41.981 318.528,43.376 C318.528,44.771 319.663,45.907 321.059,45.907 M647.493,75.454 C648.821,75.454 649.901,74.373 649.901,73.045 C649.901,71.718 648.821,70.638 647.493,70.638 C646.167,70.638 645.087,71.718 645.087,73.045 C645.087,74.373 646.167,75.454 647.493,75.454 M681.955,93.578 C682.685,93.578 683.278,92.986 683.278,92.255 C683.278,91.527 682.685,90.932 681.955,90.932 C681.226,90.932 680.631,91.527 680.631,92.255 C680.631,92.986 681.226,93.578 681.955,93.578 M587.615,107.184 C588.345,107.184 588.938,106.59 588.938,105.862 C588.938,105.131 588.345,104.539 587.615,104.539 C586.886,104.539 586.292,105.131 586.292,105.862 C586.292,106.59 586.886,107.184 587.615,107.184 M578.717,63.673 C579.446,63.673 580.04,63.079 580.04,62.35 C580.04,61.62 579.446,61.025 578.717,61.025 C577.987,61.025 577.394,61.62 577.394,62.35 C577.394,63.079 577.987,63.673 578.717,63.673 M616.237,102.148 C616.806,102.148 617.268,101.686 617.268,101.118 C617.268,100.549 616.806,100.087 616.237,100.087 C615.669,100.087 615.207,100.549 615.207,101.118 C615.207,101.686 615.669,102.148 616.237,102.148 M654.076,101.118 C654.076,103.156 655.733,104.813 657.771,104.813 C659.808,104.813 661.466,103.156 661.466,101.118 C661.466,99.081 659.808,97.422 657.771,97.422 C655.733,97.422 654.076,99.081 654.076,101.118 M618.316,66.045 C619.046,66.045 619.64,65.451 619.64,64.72 C619.64,63.992 619.046,63.397 618.316,63.397 C617.587,63.397 616.994,63.992 616.994,64.72 C616.994,65.451 617.587,66.045 618.316,66.045 M595.714,87.882 C597.042,87.882 598.123,86.801 598.123,85.472 C598.123,84.144 597.042,83.062 595.714,83.062 C594.386,83.062 593.304,84.144 593.304,85.472 C593.304,86.801 594.386,87.882 595.714,87.882 M412.702,25.308 C413.419,25.308 414.001,24.724 414.001,24.009 C414.001,23.291 413.419,22.709 412.702,22.709 C411.986,22.709 411.404,23.291 411.404,24.009 C411.404,24.724 411.986,25.308 412.702,25.308 M359.385,31.519 C359.385,33.786 361.229,35.631 363.497,35.631 C365.767,35.631 367.612,33.786 367.612,31.519 C367.612,29.249 365.767,27.403 363.497,27.403 C361.229,27.403 359.385,29.249 359.385,31.519 M367.247,70.053 C365.759,70.053 364.547,71.265 364.547,72.752 C364.547,74.243 365.759,75.454 367.247,75.454 C368.734,75.454 369.947,74.243 369.947,72.752 C369.947,71.265 368.734,70.053 367.247,70.053 M552.629,61.301 C554.339,61.301 555.73,59.909 555.73,58.199 C555.73,56.489 554.339,55.097 552.629,55.097 C550.919,55.097 549.527,56.489 549.527,58.199 C549.527,59.909 550.919,61.301 552.629,61.301 M552.629,106.374 C554.65,106.374 556.295,104.731 556.295,102.71 C556.295,100.69 554.65,99.044 552.629,99.044 C550.607,99.044 548.963,100.69 548.963,102.71 C548.963,104.731 550.607,106.374 552.629,106.374 M520.822,113.729 C520.822,116.555 523.122,118.855 525.948,118.855 C528.774,118.855 531.073,116.555 531.073,113.729 C531.073,110.903 528.774,108.604 525.948,108.604 C523.122,108.604 520.822,110.903 520.822,113.729 M525.948,78.909 C527.275,78.909 528.355,77.83 528.355,76.501 C528.355,75.174 527.275,74.094 525.948,74.094 C524.62,74.094 523.54,75.174 523.54,76.501 C523.54,77.83 524.62,78.909 525.948,78.909 M499.805,44.306 C499.805,47.934 502.756,50.885 506.383,50.885 C510.009,50.885 512.96,47.934 512.96,44.306 C512.96,40.681 510.009,37.729 506.383,37.729 C502.756,37.729 499.805,40.681 499.805,44.306 M495.115,78.909 C496.445,78.909 497.524,77.83 497.524,76.501 C497.524,75.174 496.445,74.094 495.115,74.094 C493.79,74.094 492.71,75.174 492.71,76.501 C492.71,77.83 493.79,78.909 495.115,78.909 M475.038,107.423 C475.038,110.322 477.396,112.68 480.295,112.68 C483.193,112.68 485.552,110.322 485.552,107.423 C485.552,104.525 483.193,102.167 480.295,102.167 C477.396,102.167 475.038,104.525 475.038,107.423 M429.897,129.666 C433.796,129.666 436.967,126.497 436.967,122.598 C436.967,118.7 433.796,115.528 429.897,115.528 C425.997,115.528 422.826,118.7 422.826,122.598 C422.826,126.497 425.997,129.666 429.897,129.666 M467.251,40.55 C468.635,40.55 469.76,39.424 469.76,38.041 C469.76,36.657 468.635,35.531 467.251,35.531 C465.867,35.531 464.74,36.657 464.74,38.041 C464.74,39.424 465.867,40.55 467.251,40.55 M401.347,50.885 C402.872,50.885 404.112,49.645 404.112,48.12 C404.112,46.595 402.872,45.355 401.347,45.355 C399.825,45.355 398.585,46.595 398.585,48.12 C398.585,49.645 399.825,50.885 401.347,50.885 M402.397,79.958 C402.397,83.351 405.157,86.113 408.552,86.113 C411.947,86.113 414.708,83.351 414.708,79.958 C414.708,76.563 411.947,73.802 408.552,73.802 C405.157,73.802 402.397,76.563 402.397,79.958 M463.556,62.35 C463.556,64.387 465.213,66.045 467.251,66.045 C469.287,66.045 470.945,64.387 470.945,62.35 C470.945,60.312 469.287,58.655 467.251,58.655 C465.213,58.655 463.556,60.312 463.556,62.35 M443.811,85.472 C443.811,87.936 445.813,89.939 448.277,89.939 C450.74,89.939 452.743,87.936 452.743,85.472 C452.743,83.009 450.74,81.005 448.277,81.005 C445.813,81.005 443.811,83.009 443.811,85.472 M425.017,48.12 C425.017,53.1 429.067,57.15 434.047,57.15 C439.026,57.15 443.078,53.1 443.078,48.12 C443.078,43.14 439.026,39.089 434.047,39.089 C429.067,39.089 425.017,43.14 425.017,48.12 M212.334,96.109 C217.073,101.192 222.557,103.229 227.979,103.764 C237.461,101.021 246.794,98.581 259.046,100.599 C256.294,96.586 255.068,91.636 255.757,86.72 C254.506,87.587 253.04,88.093 251.515,88.186 C238.808,91.964 231.328,89.755 224.088,87.605 C220.091,86.417 215.959,85.192 210.472,84.87 C208.242,84.739 206.086,84.677 203.969,84.65 C205.418,86.231 206.742,88 207.875,89.995 C207.929,90.088 207.988,90.167 208.042,90.26 C208.924,90.87 210.192,92.443 212.334,96.109 M279.56,36.68 C279.56,38.008 280.64,39.089 281.967,39.089 C283.295,39.089 284.373,38.008 284.373,36.68 C284.373,35.353 283.295,34.273 281.967,34.273 C280.64,34.273 279.56,35.353 279.56,36.68 M316.431,43.376 C316.431,45.928 318.505,48.002 321.059,48.002 C323.609,48.002 325.683,45.928 325.683,43.376 C325.683,40.825 323.609,38.75 321.059,38.75 C318.505,38.75 316.431,40.825 316.431,43.376 M316.974,24.009 C316.974,27.567 319.871,30.462 323.43,30.462 C326.988,30.462 329.884,27.567 329.884,24.009 C329.884,20.449 326.988,17.554 323.43,17.554 C319.871,17.554 316.974,20.449 316.974,24.009 M342.137,62.053 C342.137,63.912 343.648,65.423 345.507,65.423 C347.365,65.423 348.878,63.912 348.878,62.053 C348.878,60.195 347.365,58.683 345.507,58.683 C343.648,58.683 342.137,60.195 342.137,62.053 M344.442,46.955 C344.442,48.821 345.962,50.339 347.83,50.339 C349.695,50.339 351.214,48.821 351.214,46.955 C351.214,45.088 349.695,43.57 347.83,43.57 C345.962,43.57 344.442,45.088 344.442,46.955 M357.288,31.519 C357.288,34.943 360.074,37.729 363.497,37.729 C366.923,37.729 369.709,34.943 369.709,31.519 C369.709,28.094 366.923,25.308 363.497,25.308 C360.074,25.308 357.288,28.094 357.288,31.519 M367.247,67.956 C364.603,67.956 362.45,70.108 362.45,72.752 C362.45,75.397 364.603,77.551 367.247,77.551 C369.891,77.551 372.043,75.397 372.043,72.752 C372.043,70.108 369.891,67.956 367.247,67.956 M396.486,48.12 C396.486,50.8 398.667,52.98 401.347,52.98 C404.027,52.98 406.208,50.8 406.208,48.12 C406.208,45.439 404.027,43.259 401.347,43.259 C398.667,43.259 396.486,45.439 396.486,48.12 M408.552,71.704 C404.002,71.704 400.299,75.407 400.299,79.958 C400.299,84.508 404.002,88.21 408.552,88.21 C413.104,88.21 416.805,84.508 416.805,79.958 C416.805,75.407 413.104,71.704 408.552,71.704 M409.307,24.009 C409.307,25.88 410.829,27.403 412.702,27.403 C414.575,27.403 416.098,25.88 416.098,24.009 C416.098,22.136 414.575,20.612 412.702,20.612 C410.829,20.612 409.307,22.136 409.307,24.009 M420.729,122.598 C420.729,127.653 424.841,131.764 429.897,131.764 C434.951,131.764 439.063,127.653 439.063,122.598 C439.063,117.542 434.951,113.43 429.897,113.43 C424.841,113.43 420.729,117.542 420.729,122.598 M422.919,48.12 C422.919,54.256 427.911,59.247 434.047,59.247 C440.185,59.247 445.175,54.256 445.175,48.12 C445.175,41.983 440.185,36.992 434.047,36.992 C427.911,36.992 422.919,41.983 422.919,48.12 M448.277,78.909 C444.657,78.909 441.714,81.854 441.714,85.472 C441.714,89.091 444.657,92.037 448.277,92.037 C451.896,92.037 454.84,89.091 454.84,85.472 C454.84,81.854 451.896,78.909 448.277,78.909 M461.459,62.35 C461.459,65.543 464.058,68.142 467.251,68.142 C470.444,68.142 473.042,65.543 473.042,62.35 C473.042,59.156 470.444,56.558 467.251,56.558 C464.058,56.558 461.459,59.156 461.459,62.35 M462.644,38.041 C462.644,40.581 464.711,42.646 467.251,42.646 C469.79,42.646 471.856,40.581 471.856,38.041 C471.856,35.5 469.79,33.435 467.251,33.435 C464.711,33.435 462.644,35.5 462.644,38.041 M472.941,107.423 C472.941,111.479 476.239,114.778 480.295,114.778 C484.35,114.778 487.648,111.479 487.648,107.423 C487.648,103.368 484.35,100.069 480.295,100.069 C476.239,100.069 472.941,103.368 472.941,107.423 M490.613,76.501 C490.613,78.985 492.634,81.005 495.115,81.005 C497.6,81.005 499.621,78.985 499.621,76.501 C499.621,74.017 497.6,71.997 495.115,71.997 C492.634,71.997 490.613,74.017 490.613,76.501 M497.708,44.306 C497.708,49.09 501.598,52.98 506.383,52.98 C511.166,52.98 515.057,49.09 515.057,44.306 C515.057,39.524 511.166,35.631 506.383,35.631 C501.598,35.631 497.708,39.524 497.708,44.306 M518.726,113.729 C518.726,117.712 521.966,120.952 525.948,120.952 C529.93,120.952 533.17,117.712 533.17,113.729 C533.17,109.747 529.93,106.507 525.948,106.507 C521.966,106.507 518.726,109.747 518.726,113.729 M521.443,76.501 C521.443,78.985 523.465,81.005 525.948,81.005 C528.432,81.005 530.452,78.985 530.452,76.501 C530.452,74.017 528.432,71.997 525.948,71.997 C523.465,71.997 521.443,74.017 521.443,76.501 M546.866,102.71 C546.866,105.886 549.452,108.472 552.629,108.472 C555.806,108.472 558.392,105.886 558.392,102.71 C558.392,99.533 555.806,96.948 552.629,96.948 C549.452,96.948 546.866,99.533 546.866,102.71 M547.431,58.199 C547.431,61.065 549.762,63.397 552.629,63.397 C555.496,63.397 557.827,61.065 557.827,58.199 C557.827,55.333 555.496,53.001 552.629,53.001 C549.762,53.001 547.431,55.333 547.431,58.199 M575.297,62.35 C575.297,64.235 576.831,65.77 578.717,65.77 C580.603,65.77 582.137,64.235 582.137,62.35 C582.137,60.463 580.603,58.93 578.717,58.93 C576.831,58.93 575.297,60.463 575.297,62.35 M584.193,105.862 C584.193,107.747 585.729,109.282 587.615,109.282 C589.502,109.282 591.036,107.747 591.036,105.862 C591.036,103.976 589.502,102.441 587.615,102.441 C585.729,102.441 584.193,103.976 584.193,105.862 M591.207,85.472 C591.207,87.958 593.229,89.98 595.714,89.98 C598.198,89.98 600.22,87.958 600.22,85.472 C600.22,82.988 598.198,80.965 595.714,80.965 C593.229,80.965 591.207,82.988 591.207,85.472 M613.11,101.118 C613.11,102.843 614.514,104.245 616.237,104.245 C617.961,104.245 619.364,102.843 619.364,101.118 C619.364,99.393 617.961,97.991 616.237,97.991 C614.514,97.991 613.11,99.393 613.11,101.118 M614.897,64.72 C614.897,66.607 616.432,68.142 618.316,68.142 C620.202,68.142 621.736,66.607 621.736,64.72 C621.736,62.835 620.202,61.301 618.316,61.301 C616.432,61.301 614.897,62.835 614.897,64.72 M642.99,73.045 C642.99,75.53 645.01,77.551 647.493,77.551 C649.977,77.551 651.998,75.53 651.998,73.045 C651.998,70.562 649.977,68.542 647.493,68.542 C645.01,68.542 642.99,70.562 642.99,73.045 M651.979,101.118 C651.979,104.311 654.578,106.91 657.771,106.91 C660.965,106.91 663.563,104.311 663.563,101.118 C663.563,97.925 660.965,95.327 657.771,95.327 C654.578,95.327 651.979,97.925 651.979,101.118 M678.533,92.255 C678.533,94.141 680.068,95.675 681.955,95.675 C683.841,95.675 685.375,94.141 685.375,92.255 C685.375,90.37 683.841,88.834 681.955,88.834 C680.068,88.834 678.533,90.37 678.533,92.255 M138.09,110.024 C137.525,111.706 137.041,113.404 136.633,115.116 C129.278,117.405 122.552,119.068 117.235,118.868 C109.374,117.454 91.495,121.014 75.718,124.156 C71.215,125.052 66.815,125.93 62.911,126.633 C99.475,56.286 239.042,3.769 405.16,3.769 C586.456,3.769 736.13,66.319 754.796,146.332 C730.351,143.493 698.666,151.221 670.024,151.681 C656.313,151.901 646.604,146.619 638.798,145.878 C634.211,145.442 614.784,155.113 607.483,155.832 C607.381,155.842 607.275,155.842 607.174,155.854 C607.116,155.718 607.053,155.562 607.007,155.459 L605.999,155.926 C589.812,156.967 569.676,149.545 551.59,149.648 C532.952,149.75 512.518,166.092 497.63,164.691 C482.742,163.29 468.039,157.555 434.126,160.809 C402.439,148.072 393.298,138.163 358.091,154.245 L356.328,153.828 C356.274,153.481 356.22,153.131 356.115,152.789 C355.555,150.965 354.322,149.473 352.646,148.586 L345.032,144.555 C343.356,143.667 341.428,143.489 339.605,144.049 C338.247,144.467 337.075,145.259 336.197,146.33 C332.988,144.194 330.045,141.64 326.486,138.549 C323.333,135.811 319.674,132.642 314.925,129.014 L356.75,147.941 L356.75,147.939 C359.318,149.103 362.056,149.687 364.807,149.687 C367.155,149.687 369.517,149.261 371.788,148.406 C376.715,146.546 380.62,142.897 382.777,138.129 L384.811,133.635 C386.184,130.601 386.743,127.335 386.494,124.089 L387.184,122.567 C391.654,112.687 387.253,101.01 377.373,96.539 L287.738,55.976 C279.482,52.238 269.984,54.715 264.474,61.39 C264.418,60.591 264.284,59.793 263.992,59.02 C263.208,56.939 261.668,55.292 259.654,54.382 C255.484,52.496 250.559,54.353 248.672,58.521 L245.575,65.363 C244.666,67.375 244.596,69.628 245.38,71.708 C245.415,71.803 245.472,71.884 245.512,71.978 L243.466,76.5 C243.241,76.997 243.068,77.509 242.946,78.03 C236.79,78.994 232.65,77.777 227.462,76.237 C223.037,74.923 218.021,73.434 211.165,73.032 C201.281,72.45 192.693,72.869 185.208,74.037 C179.954,72.682 175.233,72.371 172.525,72.513 C161.438,73.098 152.009,77.289 145.974,84.317 C140.429,90.775 137.738,99.611 138.09,110.024 M163.376,155.529 C159.338,156.464 155.187,154.699 153.556,152.842 C153.48,152.758 153.424,152.677 153.363,152.594 C152.396,152.921 151.237,153.251 150.032,153.471 C150.903,156.185 151.769,158.115 152.386,158.954 C154.269,160.49 159.31,161.54 162.938,159.101 C162.854,158.79 162.799,158.468 162.777,158.137 C162.721,157.21 162.936,156.314 163.376,155.529 M434.052,246.904 L435.206,247.571 L436.378,248.354 C437.329,249.114 437.782,249.69 438.39,250.325 C439.55,251.594 440.718,252.873 441.774,254.399 C442.293,255.172 442.803,255.995 443.142,257.068 C443.31,257.595 443.413,258.227 443.352,258.91 C443.296,259.606 442.987,260.309 442.575,260.855 C441.709,261.916 440.682,262.348 439.767,262.693 C438.843,263.001 437.929,263.225 437.04,263.356 C433.479,263.901 430.043,263.851 426.608,263.768 C424.9,263.714 423.179,263.618 421.495,263.519 C420.537,263.447 419.556,263.458 418.521,263.43 C418.899,263.636 419.276,263.848 419.802,264.238 C419.868,264.294 419.88,264.293 419.986,264.4 C420.098,264.514 420.198,264.641 420.284,264.772 C420.426,264.982 420.557,265.491 420.457,265.865 C420.364,266.268 420.228,266.409 420,266.637 C419.819,266.828 419.396,266.989 419.368,266.983 L419.192,267.017 C418.913,267.063 418.817,267.049 418.7,267.05 C418.569,267.05 418.479,267.042 418.388,267.036 C418.008,267.008 417.7,266.96 417.378,266.914 C416.747,266.817 416.14,266.702 415.534,266.582 C414.328,266.345 413.138,266.083 411.951,265.811 C409.578,265.262 407.225,264.684 404.862,264.033 C404.267,263.868 403.682,263.701 403.054,263.493 C402.887,263.434 402.732,263.383 402.502,263.284 C401.922,262.985 401.976,262.904 401.798,262.771 C401.513,262.508 401.268,262.258 401.072,262.028 C400.207,261.079 399.458,260.14 398.685,259.188 C397.16,257.288 395.681,255.37 394.207,253.449 L389.816,247.678 L387.623,244.806 L386.525,243.384 L385.54,242.167 C384.823,241.625 383.709,241.006 382.687,240.43 L379.531,238.715 L376.697,237.24 C365.925,239.12 354.743,238.414 342.114,230.557 C339.831,229.134 338.038,227.192 336.638,224.873 C335.537,225.524 334.309,225.882 333.044,225.882 C332.656,225.882 332.265,225.85 331.874,225.785 L323.373,224.375 C321.504,224.064 319.862,223.04 318.752,221.487 C318.313,220.876 318.012,220.204 317.789,219.507 C290.66,212.672 268.58,198.959 256.334,190.085 C253.67,189.815 236.904,187.674 224.525,175.859 C213.123,164.975 206.917,154.969 203.894,146.159 C202.318,145.725 200.929,145.48 199.721,145.418 C199.69,145.422 199.661,145.427 199.63,145.432 C198.457,145.603 197.183,145.789 195.818,145.978 C192.591,147.273 191.144,150.586 189.493,154.401 C187.992,157.865 186.439,161.45 183.244,163.616 C182.558,164.082 181.853,164.282 181.13,164.282 C179.784,164.282 178.382,163.57 176.97,162.569 C176.869,163.514 176.494,164.438 175.816,165.204 C174.881,166.262 173.574,166.801 172.264,166.801 C171.309,166.801 170.359,166.498 169.541,165.916 L171.093,167.803 C167.188,171.022 162.423,172.423 157.824,172.423 C152.599,172.423 147.587,170.619 144.284,167.62 C141.656,165.235 138.192,157.304 136.257,146.995 C134.901,147.045 133.924,147.095 133.582,147.121 C131.17,147.307 129.114,147.741 126.937,148.201 C123.686,148.89 120.059,149.659 114.639,149.659 C113.78,149.659 112.879,149.639 111.926,149.597 C109.073,149.472 98.173,148.002 86.632,146.447 C74.56,144.82 61.1,142.998 56.462,142.69 C54.547,149.415 53.552,156.269 53.552,163.227 C53.552,251.155 211.284,322.687 405.16,322.687 C531.681,322.687 642.793,292.217 704.738,246.615 C701.326,244.529 698.296,242.602 695.752,240.913 C678.347,229.36 666.942,231.7 657.779,233.581 C653.287,234.5 649.41,235.296 645.69,234.247 C591.457,218.939 553.999,228.372 533.875,233.437 C526.179,235.379 521.092,236.663 517.887,235.972 C513.258,234.982 508.268,235.845 501.36,237.041 C492.397,238.592 480.126,240.709 461.248,240.012 C440.312,239.228 422.856,236.992 410.109,235.358 C409.388,235.266 408.684,235.178 407.992,235.089 L424.784,242.429 C427.888,243.835 430.979,245.219 434.052,246.904 M605.941,178.426 C553.927,175.623 530.099,191.224 518.024,196.105 C523.907,195.821 530.536,194.351 537.418,192.823 C548.464,190.362 559.894,187.823 570.228,189.644 C579.732,191.323 589.411,194.997 598.77,198.55 C609.592,202.66 619.814,206.54 629.293,207.318 C633.153,207.622 639.657,206.07 645.407,204.69 C651.761,203.165 657.246,201.847 659.971,202.616 C670.367,205.549 689.464,208.551 709.683,211.728 C718.615,213.131 727.842,214.582 736.872,216.104 C741.925,209.604 746.082,202.915 749.258,196.063 C723.847,190.756 686.52,178.899 672.815,173.01 C646.396,161.662 626.363,180.144 616.326,179.189 C613.333,178.905 610.457,178.699 607.631,178.526 C607.311,178.846 606.971,179.152 606.576,179.407 L605.941,178.426 z M356.4,154.729 L357.154,154.674 C356.901,154.792 356.658,154.9 356.402,155.021 C356.403,154.923 356.403,154.825 356.4,154.729" fill="#359FCD"/>
    <path d="M246.489,71.291 C245.816,69.507 245.876,67.575 246.655,65.852 L249.751,59.01 C250.94,56.385 253.535,54.83 256.244,54.83 C257.224,54.83 258.219,55.033 259.167,55.462 C260.891,56.242 262.211,57.655 262.883,59.438 C263.556,61.222 263.496,63.153 262.717,64.877 L259.62,71.717 C258.84,73.441 257.428,74.761 255.644,75.434 C253.861,76.105 251.93,76.048 250.206,75.267 C248.48,74.486 247.162,73.074 246.489,71.291 M174.623,159.396 C176.091,160.698 176.229,162.948 174.93,164.417 C173.629,165.888 171.376,166.024 169.908,164.724 L165.149,160.514 C164.44,159.886 164.02,159.017 163.961,158.065 C163.903,157.115 164.216,156.2 164.843,155.49 C165.544,154.698 166.524,154.292 167.509,154.292 C168.348,154.292 169.189,154.586 169.864,155.183 L174.623,159.396 z M614.159,224.706 C614.015,224.875 613.856,225.044 613.7,225.212 C576.208,220.344 549.313,227.107 533.296,231.139 C526.187,232.93 521.048,234.229 518.383,233.653 C513.307,232.565 508.124,233.463 500.956,234.706 C492.098,236.238 479.972,238.341 461.338,237.641 C440.507,236.863 423.112,234.633 410.411,233.007 C406.631,232.523 403.366,232.105 400.571,231.795 C400.12,231.59 399.684,231.379 399.337,231.137 C398.694,230.764 398.041,230.382 397.384,229.845 C396.059,228.893 394.77,227.837 393.489,226.751 C392.194,225.702 390.954,224.548 389.686,223.447 C384.66,218.957 379.753,214.294 374.859,209.623 L360.209,195.537 C355.275,190.862 350.465,186.138 345.125,181.733 C345.032,181.652 344.912,181.578 344.81,181.498 C345.51,180.807 346.074,179.983 346.443,179.043 C347.133,177.279 347.093,175.343 346.329,173.594 C346.214,173.335 346.061,173.106 345.921,172.864 C347.683,172.392 349.262,171.251 350.242,169.552 C351.191,167.911 351.441,165.992 350.948,164.151 C350.733,163.347 350.367,162.62 349.912,161.957 C350.414,161.913 350.913,161.834 351.407,161.684 C352.11,161.467 352.744,161.123 353.335,160.721 C393.059,149.206 403.636,156.299 426.694,171.827 C430.687,174.516 435.212,177.562 440.265,180.748 L440.509,180.903 L440.798,180.926 C468.146,183.246 483.422,188.817 495.697,193.29 C500.091,194.894 504.242,196.407 508.433,197.584 C516.604,199.883 526.964,197.578 537.932,195.136 C548.753,192.729 559.942,190.239 569.815,191.98 C579.101,193.619 588.671,197.253 597.928,200.767 C603.24,202.785 608.408,204.742 613.441,206.319 C613.611,206.551 613.862,206.912 614.159,207.382 C616.081,210.432 619.813,218.083 614.159,224.706 M169.935,121.885 L163.299,118.189 C164.229,117.542 165.196,116.875 166.192,116.19 L169.935,121.885 z M190.1,112.671 L184.46,104.086 C184.987,103.75 185.514,103.417 186.036,103.086 L191.702,111.71 L190.1,112.671 z M193.502,110.631 L187.812,101.972 C188.345,101.639 188.875,101.309 189.399,100.986 L195.104,109.671 L193.502,110.631 z M196.904,108.593 L191.186,99.888 C191.726,99.56 192.259,99.238 192.782,98.922 L198.506,107.632 L196.904,108.593 z M200.307,106.554 L194.586,97.848 C195.136,97.524 195.675,97.209 196.201,96.906 L201.909,105.593 L200.307,106.554 z M207.11,102.475 L201.534,93.986 C202.143,93.679 202.703,93.408 203.229,93.167 L208.713,101.514 L207.11,102.475 z M203.709,104.515 L198.027,95.866 C198.595,95.547 199.139,95.25 199.667,94.965 L205.311,103.553 L203.709,104.515 z M179.893,118.79 L174.498,110.579 C175.016,110.235 175.534,109.892 176.054,109.546 L181.496,117.829 L179.893,118.79 z M186.697,114.711 L181.125,106.229 C181.648,105.89 182.172,105.552 182.694,105.217 L188.299,113.75 L186.697,114.711 z M176.492,120.829 L171.206,112.783 C171.718,112.438 172.234,112.091 172.755,111.743 L178.094,119.868 L176.492,120.829 z M183.296,116.75 L177.806,108.393 C178.326,108.052 178.847,107.711 179.367,107.372 L184.898,115.789 L183.296,116.75 z M174.69,121.907 L173.089,122.869 L167.923,115.005 C168.433,114.659 168.945,114.309 169.467,113.957 L174.69,121.907 z M210.514,100.436 L205.204,92.356 C205.924,92.111 206.475,91.999 206.823,92.044 L206.965,92.065 C207.458,92.443 208.792,94.093 211.202,98.346 C211.6,99.048 211.368,99.923 210.677,100.337 L210.514,100.436 z M155.58,148.586 L156.519,148.123 L141.894,118.41 L141.012,118.845 L141.887,114.798 C147.401,114.458 162.571,118.314 169.745,124.336 C172.073,126.289 173.269,128.232 173.308,130.111 C173.489,139.249 155.056,149.672 154.942,149.741 C153.369,150.466 148.691,152.193 145.978,151.461 C143.988,150.713 137.999,136.436 133.451,123.317 L140.149,119.614 L154.639,149.049 L155.58,148.586 z M140.332,112.602 C139.395,101.418 141.827,92.365 147.565,85.682 C153.223,79.095 162.127,75.162 172.634,74.606 C179.016,74.267 197.01,76.482 205.492,90.163 C196.904,92.412 167.816,112.484 161.681,116.76 L162.038,117.273 C159.145,116.118 155.988,115.092 152.692,114.297 C148.634,113.23 144.884,112.644 142.306,112.694 C141.647,112.652 140.987,112.618 140.332,112.602 M440.224,257.952 C440.403,258.546 440.327,258.748 440.172,258.995 C439.974,259.266 439.407,259.613 438.746,259.841 C438.065,260.067 437.331,260.26 436.544,260.378 C433.403,260.875 430.028,260.866 426.698,260.791 C425.021,260.744 423.358,260.658 421.661,260.566 C419.896,260.454 418.147,260.566 416.71,260.362 C413.854,259.992 411.076,257.985 408.38,256.103 L407.271,255.331 L406.436,256.323 C406.124,256.693 405.926,257.172 405.923,257.704 C405.935,257.915 405.971,258.124 406.022,258.33 C406.076,258.502 406.139,258.627 406.208,258.776 C406.482,259.286 406.768,259.583 407.037,259.853 C407.58,260.382 408.111,260.772 408.645,261.145 C409.512,261.737 410.382,262.25 411.256,262.748 C409.361,262.308 407.463,261.86 405.602,261.354 C405.034,261.197 404.456,261.036 403.936,260.866 L403.728,260.79 C403.695,260.761 403.66,260.73 403.644,260.707 C403.483,260.56 403.304,260.385 403.105,260.154 C402.34,259.322 401.576,258.377 400.824,257.458 C399.318,255.598 397.839,253.697 396.365,251.79 L391.955,246.046 L389.744,243.169 L388.618,241.731 L388.037,241.006 C387.823,240.755 387.692,240.555 387.29,240.163 C387.22,240.108 387.157,240.068 387.088,240.016 L393.769,230.721 C394.391,231.219 395.025,231.713 395.683,232.192 C396.042,232.451 396.356,232.727 396.752,232.974 L397.961,233.699 C398.784,234.232 399.542,234.517 400.318,234.881 L404.963,236.971 L423.542,245.18 C426.602,246.582 429.69,247.987 432.554,249.573 L433.599,250.181 L434.536,250.812 C434.925,251.097 435.577,251.815 436.128,252.415 C437.257,253.638 438.374,254.87 439.251,256.132 C439.683,256.756 440.054,257.405 440.224,257.952 M383.776,228.665 L385.189,226.98 C385.951,226.072 387.128,225.729 388.214,225.961 C389.064,226.717 389.913,227.47 390.779,228.212 C390.862,228.456 390.928,228.706 390.95,228.968 C391.022,229.794 390.773,230.594 390.244,231.222 L388.83,232.908 C387.738,234.212 385.784,234.385 384.479,233.29 L384.155,233.016 C382.852,231.922 382.681,229.97 383.776,228.665 M384.913,222.923 L376.806,234.346 L374.307,233.057 L361.334,226.582 C352.678,222.29 343.994,218.048 335.395,213.687 C333.261,212.585 331.074,211.499 329.079,210.31 C327.068,209.072 325.181,207.665 323.519,206.041 C321.856,204.409 320.516,202.523 319.231,200.479 C317.955,198.455 316.493,196.3 314.537,194.672 C314.291,194.468 314.074,194.259 313.8,194.059 C313.502,193.845 313.237,193.678 312.979,193.521 L311.419,192.566 L308.292,190.718 L302.011,187.092 C297.805,184.704 293.587,182.348 289.311,180.069 C280.751,175.652 272.648,170.396 265.03,164.48 C261.215,161.531 257.528,158.417 253.896,155.237 L248.482,150.424 C247.059,149.183 245.667,147.889 244.155,146.752 C243.736,146.438 243.313,146.128 242.873,145.844 C244.867,147.209 246.577,148.935 248.351,150.565 L253.636,155.526 C257.177,158.816 260.833,161.985 264.594,165.031 C272.117,171.115 280.183,176.58 288.705,181.194 C292.911,183.536 297.071,185.991 301.231,188.44 L307.453,192.132 L310.542,194.008 L312.058,194.96 C312.314,195.123 312.558,195.284 312.75,195.425 C312.961,195.582 313.18,195.793 313.396,195.977 C315.151,197.48 316.426,199.393 317.693,201.454 C318.947,203.512 320.397,205.614 322.166,207.39 C323.231,208.458 324.38,209.419 325.578,210.313 C323.751,210.04 321.915,210.475 320.397,211.56 C318.848,212.669 317.822,214.312 317.512,216.182 C317.467,216.447 317.473,216.711 317.458,216.975 C290.936,210.113 269.368,196.631 257.465,187.975 L257.197,187.78 L256.864,187.752 C256.684,187.739 238.757,186.165 226.165,174.143 C214.532,163.04 208.5,152.936 205.77,144.166 L204.814,145.318 L205.114,144.313 C193.122,140.738 190.172,147.554 187.569,153.568 C186.186,156.756 184.758,160.056 182.065,161.881 C180.61,162.87 178.358,161.161 175.906,159.045 C175.752,158.859 175.597,158.674 175.41,158.507 L170.651,154.295 C169.655,153.415 168.388,153.036 167.156,153.125 C166.035,152.853 164.901,152.85 163.766,153.267 C160.819,154.347 158.085,153.297 157.048,152.797 C156.327,152.449 155.821,152.09 155.478,151.79 C155.506,151.778 155.537,151.766 155.561,151.755 C161.188,152.202 166.304,147.371 169.636,143.195 C174.195,137.479 177.762,129.935 176.975,127.669 C176.633,126.686 175.783,125.59 174.533,124.448 L211.755,102.136 C212.592,101.636 213.149,100.855 213.378,99.988 C221.277,106.517 230.603,106.53 237.895,105.54 C238.286,105.485 238.674,105.431 239.053,105.373 L238.947,104.676 C240.881,104.162 242.842,103.747 244.824,103.483 C248.162,103.098 251.532,103.035 254.856,103.424 C258.171,103.886 261.393,104.813 264.392,106.252 C267.403,107.745 270.292,109.476 273.071,111.355 C278.648,115.121 283.675,119.612 288.541,124.303 C289.773,125.47 290.977,126.659 292.303,127.795 L296.245,130.982 C297.48,132.102 298.695,133.249 299.89,134.418 C301.03,135.651 302.215,136.832 303.313,138.105 C307.758,143.144 311.786,148.568 315.798,154.019 C319.812,159.47 323.777,164.987 328.183,170.227 C330.354,172.866 332.743,175.358 335.271,177.729 C335.918,178.308 336.616,178.841 337.286,179.4 C337.957,179.959 338.63,180.514 339.396,180.97 L341.622,182.415 C342.247,182.885 342.865,183.223 343.504,183.783 C348.603,188.023 353.464,192.814 358.341,197.479 L372.937,211.623 C376.887,215.424 380.867,219.201 384.913,222.923 M387.387,236.006 L385.323,238.877 C384.872,238.62 384.427,238.373 383.977,238.119 L380.763,236.387 L378.688,235.318 L381.123,231.887 C381.375,232.92 381.932,233.889 382.807,234.623 L383.129,234.895 C384.101,235.708 385.283,236.104 386.459,236.104 C386.772,236.104 387.079,236.062 387.387,236.006 M330.177,168.865 C331.266,168.466 332.438,168.458 333.517,168.883 L341.54,172.022 C342.717,172.482 343.646,173.378 344.157,174.545 C344.668,175.711 344.695,177.002 344.235,178.18 C343.93,178.96 343.426,179.597 342.818,180.096 L340.835,178.832 C340.135,178.432 339.499,177.915 338.862,177.396 C338.226,176.878 337.565,176.39 336.946,175.847 C334.571,173.672 332.295,171.353 330.177,168.865 M337.466,217.099 C337.758,217.872 337.863,218.703 337.727,219.535 C337.521,220.782 336.834,221.876 335.798,222.617 C334.763,223.357 333.507,223.65 332.262,223.446 L323.761,222.035 C322.515,221.829 321.421,221.144 320.68,220.109 C319.94,219.073 319.645,217.816 319.853,216.57 C320.059,215.325 320.743,214.231 321.778,213.49 C322.599,212.903 323.556,212.596 324.537,212.596 C324.795,212.596 325.057,212.616 325.317,212.66 L330.749,213.56 C331.976,214.233 333.204,214.882 334.436,215.539 C335.441,216.065 336.458,216.576 337.466,217.099 M343.997,170.721 C343.505,170.362 342.985,170.041 342.404,169.814 L338.633,168.336 L334.237,165.799 C333.144,165.167 332.358,164.143 332.03,162.913 C331.699,161.682 331.866,160.403 332.497,159.309 C333.807,157.04 336.72,156.26 338.988,157.569 L346.449,161.876 C347.542,162.508 348.326,163.534 348.657,164.764 C348.985,165.995 348.819,167.275 348.189,168.369 C347.297,169.911 345.666,170.744 343.997,170.721 M347.091,159.082 L339.476,155.051 C338.36,154.459 337.539,153.465 337.166,152.247 C336.79,151.03 336.91,149.746 337.5,148.628 C338.09,147.512 339.088,146.691 340.303,146.318 C340.77,146.173 341.246,146.103 341.72,146.103 C342.479,146.103 343.235,146.288 343.922,146.652 L351.539,150.683 C352.653,151.272 353.473,152.268 353.85,153.487 C354.224,154.704 354.105,155.988 353.514,157.105 C352.924,158.22 351.927,159.042 350.712,159.415 C349.493,159.791 348.209,159.671 347.091,159.082 M259.465,82.326 L261.498,77.833 C263.395,73.642 266.829,70.434 271.166,68.798 C273.164,68.044 275.24,67.669 277.307,67.669 C279.726,67.669 282.13,68.182 284.388,69.205 L294.222,73.654 L278.623,109.982 L268.091,105.217 C259.401,101.285 255.534,91.016 259.465,82.326 M357.727,145.779 L351.631,143.021 L367.143,106.655 L374.023,109.767 C378.213,111.665 381.422,115.098 383.057,119.433 C384.692,123.771 384.546,128.466 382.649,132.657 L380.617,137.152 C378.72,141.342 375.286,144.55 370.951,146.185 C366.613,147.822 361.917,147.677 357.727,145.779 M281.151,111.126 L282.961,111.903 L298.542,75.61 L362.82,104.698 L347.31,141.065 L281.151,111.126 z M360.239,228.759 L373.103,235.364 C363.78,236.463 354.091,235.217 343.365,228.543 C341.329,227.274 339.716,225.491 338.465,223.325 C339.286,222.358 339.855,221.202 340.065,219.922 C340.145,219.443 340.171,218.96 340.154,218.485 C346.842,221.934 353.545,225.34 360.239,228.759 M795.826,283.452 C767.295,280.4 717.069,252.213 697.064,238.938 C686.062,231.635 677.166,229.669 669.844,229.669 C665.035,229.669 660.904,230.516 657.302,231.256 C653.114,232.116 649.5,232.857 646.334,231.965 C635.749,228.976 625.804,226.927 616.488,225.593 C621.688,218.838 618.959,211.277 616.825,207.32 C621.01,208.49 625.104,209.355 629.101,209.682 C633.314,210.029 639.749,208.485 645.961,206.997 C651.487,205.669 657.201,204.296 659.326,204.899 C669.858,207.869 689.024,210.881 709.313,214.07 C744.662,219.626 784.64,225.909 798.097,234.385 C797.405,236.48 796.857,238.479 796.414,240.402 C791.369,238.657 786.305,236.966 781.204,235.39 C773.232,232.907 765.152,230.747 756.979,229.03 C748.818,227.367 740.49,225.961 732.135,226.456 C740.494,226.161 748.757,227.759 756.852,229.61 C764.956,231.512 772.955,233.854 780.843,236.521 C785.959,238.234 791.03,240.065 796.083,241.95 C793.713,253.593 795.521,262.083 796.927,268.601 C797.05,269.177 797.168,269.728 797.282,270.271 C795.975,270.02 794.668,269.771 793.363,269.512 C785.437,267.916 777.535,266.163 769.716,264.087 C761.904,262.005 754.113,259.783 746.519,256.986 C738.932,254.201 731.434,251.075 724.439,246.961 C731.331,251.244 738.771,254.563 746.311,257.54 C753.858,260.532 761.615,262.952 769.401,265.232 C777.195,267.504 785.077,269.457 792.993,271.251 C794.557,271.602 796.116,271.94 797.679,272.277 C798.509,276.79 798.55,280.204 795.826,283.452 M607.174,155.852 C607.275,155.843 607.381,155.843 607.483,155.832 C614.784,155.111 634.211,145.442 638.798,145.878 C646.604,146.619 656.313,151.901 670.024,151.68 C698.666,151.221 730.351,143.493 754.796,146.332 C755.545,146.418 756.291,146.51 757.026,146.619 C760.509,147.126 763.833,147.867 766.965,148.899 C766.501,151.954 766.261,154.798 766.173,157.478 C760.82,156.149 755.448,155.331 750.019,154.763 C743.569,154.123 737.091,153.882 730.624,154.037 C729.009,154.067 727.395,154.183 725.781,154.25 C724.167,154.312 722.555,154.413 720.946,154.584 L716.124,155.024 L711.324,155.67 C708.118,156.036 704.961,156.726 701.784,157.272 C698.619,157.884 695.494,158.689 692.352,159.389 C695.518,158.787 698.66,158.081 701.838,157.566 C705.025,157.118 708.19,156.525 711.398,156.258 L716.195,155.76 L721.009,155.472 C722.61,155.35 724.215,155.3 725.821,155.287 C727.427,155.269 729.031,155.203 730.637,155.224 C737.056,155.266 743.465,155.704 749.814,156.531 C755.322,157.271 760.854,158.315 766.137,159.835 C766.169,173.312 770.249,182.12 771.176,189.211 C758.526,187.394 745.89,185.374 733.313,183.067 C726.071,181.747 718.852,180.299 711.671,178.676 C704.497,177.032 697.329,175.289 690.381,172.827 C697.263,175.475 704.396,177.415 711.532,179.252 C718.677,181.071 725.868,182.713 733.084,184.229 C745.789,186.915 758.549,189.306 771.356,191.49 C771.412,194.042 770.902,196.4 769.436,198.717 C765.318,198.867 758.959,198.001 751.404,196.496 C750.694,196.354 749.987,196.214 749.258,196.061 C723.847,190.757 686.52,178.897 672.814,173.01 C646.396,161.66 626.363,180.143 616.326,179.189 C613.333,178.904 610.457,178.698 607.631,178.526 C612.985,173.166 608.617,159.284 607.174,155.852 M358.091,154.245 C393.298,138.163 402.439,148.069 434.126,160.809 C468.039,157.557 482.742,163.29 497.63,164.692 C512.518,166.091 532.952,149.751 551.59,149.648 C569.676,149.545 589.812,156.967 605.999,155.926 L605.932,155.959 L604.855,156.456 C605.147,157.085 605.532,158.11 605.932,159.376 C607.536,164.479 609.317,173.523 605.932,176.858 C605.729,177.058 605.526,177.259 605.286,177.417 L605.932,178.41 L605.943,178.428 C553.927,175.622 530.099,191.222 518.024,196.103 C514.786,196.259 511.771,196.059 509.073,195.303 C504.971,194.149 500.861,192.648 496.51,191.064 C484.146,186.555 468.769,180.949 441.286,178.587 C436.36,175.477 431.933,172.495 428.019,169.859 C405.605,154.766 394.167,147.079 355.884,157.544 C356.214,156.733 356.388,155.884 356.402,155.019 C356.658,154.9 356.901,154.792 357.154,154.674 C357.468,154.531 357.778,154.386 358.091,154.245 M244.726,102.764 C242.739,103.069 240.781,103.521 238.854,104.073 L238.759,103.454 C245.5,102.095 252.716,101.625 261.485,103.5 C261.706,103.718 261.917,103.946 262.148,104.155 C259.818,103.344 257.405,102.792 254.963,102.502 C251.544,102.17 248.11,102.304 244.726,102.764 M289.68,123.099 C284.951,118.622 279.954,114.32 274.473,110.707 L303.747,123.955 C313.689,130.59 319.941,136.011 324.931,140.34 C328.548,143.479 331.621,146.14 335.044,148.397 C334.506,149.852 334.433,151.429 334.897,152.945 C335.087,153.56 335.378,154.12 335.712,154.649 C333.583,154.924 331.597,156.124 330.445,158.123 C329.496,159.765 329.245,161.684 329.738,163.525 C330.012,164.545 330.513,165.457 331.167,166.242 C330.263,166.323 329.392,166.571 328.59,166.974 C324.756,162.382 321.158,157.55 317.521,152.735 C313.436,147.326 309.312,141.905 304.73,136.832 C303.599,135.557 302.369,134.357 301.194,133.118 C299.953,131.934 298.691,130.766 297.405,129.631 L293.404,126.477 C292.146,125.423 290.919,124.246 289.68,123.099 M261.835,71.258 L263.869,66.765 C267.801,58.075 278.071,54.208 286.76,58.137 L376.394,98.701 C384.519,102.376 388.427,111.591 385.689,119.875 C385.56,119.449 385.433,119.019 385.275,118.597 C383.418,113.668 379.769,109.764 375,107.607 L285.366,67.045 C280.599,64.886 275.258,64.72 270.329,66.581 C266.367,68.072 263.088,70.735 260.826,74.19 C261.076,73.196 261.405,72.212 261.835,71.258 M139.609,144.787 C136.447,144.875 134.013,144.985 133.421,145.03 C130.871,145.226 128.75,145.674 126.503,146.149 C122.68,146.958 118.731,147.794 112.018,147.501 C109.26,147.381 98.404,145.917 86.913,144.37 C72.468,142.422 57.522,140.394 54.973,140.554 C54.496,140.582 53.017,141.059 47.393,142.927 C42.021,144.711 33.901,147.407 32.552,147.529 C31.789,147.41 27.849,145.979 24.51,144.651 C28.869,145.087 31.088,145.04 32.044,144.08 C32.402,143.72 32.566,143.247 32.506,142.747 L32.395,141.791 L31.433,141.821 C24.832,142.031 23.501,141.148 21.103,139.558 C20.543,139.187 19.933,138.782 19.204,138.349 C15.193,135.961 2.99,128.7 3.517,126.562 C3.658,125.985 5.236,124.941 14.188,124.462 C16.71,124.309 27.648,126.278 38.241,128.165 C41.965,128.828 45.773,129.504 49.403,130.128 C53.203,130.783 63.826,128.665 76.128,126.213 C91.721,123.107 109.399,119.584 117.007,120.946 C123.255,121.207 131.006,119.135 139.385,116.444 L139.091,117.801 L130.896,122.333 L131.181,123.166 C132.621,127.361 136.171,137.398 139.609,144.787 M244.379,82.428 C243.706,80.644 243.766,78.713 244.545,76.989 L246.207,73.316 C247.062,74.633 248.259,75.687 249.716,76.347 C250.802,76.838 251.957,77.084 253.117,77.084 C254.108,77.084 255.104,76.905 256.062,76.542 C256.844,76.248 257.54,75.816 258.183,75.322 C257.948,76.812 257.878,78.319 257.994,79.827 L257.303,81.348 C256.783,82.5 256.393,83.678 256.108,84.866 C254.075,86.95 250.893,87.672 248.094,86.405 C246.37,85.624 245.05,84.211 244.379,82.428 M138.411,114.555 C137.813,114.747 137.222,114.932 136.633,115.116 C137.04,113.405 137.525,111.705 138.09,110.024 C138.13,111.243 138.204,112.479 138.329,113.741 L138.411,114.555 z M202.956,74.848 L204.178,74.857 L204.077,82.559 L202.926,82.549 L202.956,74.848 z M205.396,74.878 L206.618,74.91 L206.384,82.608 L205.233,82.579 L205.396,74.878 z M207.835,74.952 L209.047,75.002 L208.699,82.696 L207.54,82.648 L207.835,74.952 z M210.266,75.063 L211.489,75.134 L211.002,82.821 L209.853,82.754 L210.266,75.063 z M212.773,75.234 C213.203,75.273 213.625,75.316 214.04,75.362 L213.179,83.016 C212.818,82.975 212.453,82.938 212.082,82.905 L212.773,75.234 z M215.312,75.522 C215.738,75.581 216.157,75.644 216.569,75.71 L215.349,83.315 C214.991,83.258 214.628,83.203 214.258,83.152 L215.312,75.522 z M219.073,76.173 L217.513,83.714 C217.157,83.641 216.797,83.569 216.428,83.501 L217.829,75.928 C218.25,76.007 218.667,76.088 219.073,76.173 M221.531,76.735 L219.682,84.211 C219.322,84.122 218.959,84.035 218.591,83.951 L220.311,76.444 C220.724,76.538 221.131,76.636 221.531,76.735 M223.943,77.377 L221.853,84.791 C221.494,84.689 221.131,84.588 220.762,84.49 L222.746,77.049 C223.152,77.157 223.549,77.267 223.943,77.377 M226.219,78.037 L224.086,85.437 L222.964,85.108 L225.115,77.713 L226.219,78.037 z M228.53,78.72 L226.378,86.116 L225.223,85.775 L227.408,78.389 L228.53,78.72 z M230.717,79.329 L228.768,86.779 C228.363,86.672 227.963,86.565 227.56,86.451 L229.633,79.035 C229.995,79.135 230.355,79.233 230.717,79.329 M232.847,79.833 L231.251,87.368 C230.834,87.278 230.418,87.184 230.004,87.087 L231.783,79.593 C232.136,79.677 232.49,79.756 232.847,79.833 M234.931,80.202 L233.841,87.825 C233.403,87.763 232.972,87.694 232.542,87.618 L233.885,80.034 C234.23,80.096 234.58,80.151 234.931,80.202 M235.963,80.328 C236.3,80.364 236.642,80.393 236.991,80.414 L236.498,88.1 C236.047,88.072 235.602,88.034 235.162,87.988 L235.963,80.328 z M238.022,80.462 C238.235,80.466 238.441,80.469 238.663,80.469 L239.057,80.466 L239.174,88.167 L238.674,88.17 L238.591,88.17 C238.341,88.17 238.087,88.167 237.834,88.161 L238.022,80.462 z M241.135,80.356 L241.839,88.025 C241.386,88.066 240.941,88.098 240.503,88.121 L240.102,80.43 C240.44,80.412 240.784,80.388 241.135,80.356 M190.705,75.409 L191.92,75.293 L192.015,76.345 C192.444,76.53 192.866,76.747 193.291,76.949 L193.157,75.191 L194.38,75.105 L194.542,77.547 C194.96,77.764 195.372,78.012 195.786,78.246 L195.607,75.031 L196.84,74.97 L197.012,78.947 C197.425,79.201 197.822,79.486 198.228,79.758 L198.061,74.922 L199.278,74.885 L199.428,80.581 C199.831,80.878 200.217,81.208 200.608,81.527 L200.507,74.862 L201.731,74.849 L201.775,82.486 C202.534,83.162 203.267,83.884 203.969,84.65 C206.086,84.676 208.24,84.739 210.473,84.87 C215.96,85.191 220.091,86.418 224.088,87.604 C231.329,89.756 238.808,91.963 251.515,88.186 C251.347,88.197 251.184,88.222 251.016,88.222 C249.873,88.222 248.713,87.985 247.606,87.484 C247.378,87.379 247.179,87.235 246.964,87.114 L246.986,87.224 C246.56,87.317 246.141,87.401 245.729,87.48 L245.454,86.021 C244.832,85.453 244.294,84.804 243.869,84.065 L244.445,87.703 C244.003,87.772 243.57,87.833 243.146,87.886 L242.189,80.246 C242.378,80.221 242.574,80.191 242.767,80.164 C242.743,79.446 242.781,78.731 242.947,78.031 C236.791,78.995 232.65,77.776 227.462,76.238 C223.037,74.924 218.021,73.434 211.165,73.032 C201.281,72.449 192.693,72.868 185.208,74.037 C187.013,74.502 188.875,75.099 190.748,75.841 L190.705,75.409 z M166.606,168.281 L163.085,161.43 C163.339,161.3 163.589,161.158 163.833,161.004 L167.919,167.532 C167.489,167.801 167.051,168.051 166.606,168.281 M163.829,169.424 L161.475,162.093 C161.752,162.004 162.03,161.904 162.302,161.79 L165.231,168.913 C164.769,169.102 164.301,169.274 163.829,169.424 M160.938,170.107 L159.748,162.499 C160.042,162.453 160.334,162.395 160.625,162.327 L162.389,169.825 C161.907,169.936 161.423,170.032 160.938,170.107 M158.013,170.348 L157.939,162.647 C158.243,162.645 158.544,162.631 158.85,162.606 L159.475,170.282 C158.986,170.321 158.5,170.345 158.013,170.348 M156.556,170.31 C156.065,170.282 155.58,170.234 155.099,170.168 L156.116,162.536 C156.415,162.575 156.716,162.605 157.021,162.623 L156.556,170.31 z M152.225,169.575 L154.338,162.168 C154.623,162.249 154.914,162.322 155.209,162.382 L153.66,169.925 C153.174,169.826 152.695,169.708 152.225,169.575 M149.425,168.531 L152.695,161.559 C152.952,161.681 153.22,161.792 153.496,161.893 L150.814,169.115 C150.336,168.935 149.872,168.743 149.425,168.531 M146.728,166.938 L151.306,160.746 C151.509,160.896 151.726,161.038 151.956,161.172 L148.061,167.815 C147.592,167.541 147.145,167.247 146.728,166.938 M144.163,164.241 L150.612,160.033 C150.712,160.183 150.799,160.315 150.888,160.409 L145.336,165.746 C144.938,165.333 144.554,164.839 144.163,164.241 M142.77,161.701 L149.73,158.405 C149.879,158.721 150.029,159.016 150.173,159.284 L143.395,162.942 C143.19,162.559 142.98,162.146 142.77,161.701 M141.725,159.267 L148.9,156.467 C149.034,156.811 149.167,157.14 149.301,157.453 L142.223,160.482 C142.056,160.097 141.89,159.693 141.725,159.267 M140.854,156.859 L148.154,154.41 C148.272,154.766 148.395,155.111 148.516,155.445 L141.272,158.065 C141.132,157.677 140.992,157.274 140.854,156.859 M169.534,165.915 L169.77,166.2 C169.573,166.364 169.373,166.521 169.169,166.674 L166.883,163.63 L164.364,161.401 C163.665,160.782 163.179,159.985 162.938,159.1 C159.309,161.54 154.267,160.49 152.386,158.954 C151.769,158.115 150.903,156.183 150.032,153.473 C149.188,153.627 148.322,153.729 147.486,153.729 C147.229,153.729 146.98,153.707 146.729,153.688 L140.464,155.662 C140.339,155.27 140.217,154.871 140.095,154.458 L144.716,153.095 C144.416,152.864 144.1,152.545 143.771,152.142 L139.752,153.243 C139.644,152.846 139.537,152.443 139.432,152.031 L143.014,151.113 C142.792,150.785 142.567,150.436 142.336,150.054 L139.129,150.821 C139.034,150.421 138.938,150.016 138.848,149.603 L141.711,148.965 C141.516,148.613 141.316,148.243 141.117,147.861 L138.587,148.387 C138.505,147.985 138.423,147.577 138.344,147.163 L139.832,146.877 C138.472,146.914 137.263,146.956 136.257,146.995 C138.19,157.304 141.656,165.235 144.284,167.62 C147.587,170.617 152.599,172.422 157.824,172.422 C162.423,172.422 167.188,171.02 171.093,167.803 L169.541,165.918 C169.539,165.916 169.536,165.915 169.534,165.915" fill="#0A0B09"/>
  </g>
</svg>
